<svg xmlns="http://www.w3.org/2000/svg" viewBox="0 0 88.29 24.03">
  <path d="M16.37,23.36l.07-9.73H11.93l5.5-4.54h4.1V19ZM6.84,17.78v0l5-4.07L11.7,6.09,6.76,10.18l0,7.54C5.42,16.3,4.75,14.15,4.75,11.2c0,0-.3-4.81,1.71-7.43,0,0-6.46,4-6.46,11.2a7.65,7.65,0,0,0,.57,3.1,7.74,7.74,0,0,0,1.77,2.61,8.93,8.93,0,0,0,3.1,2.12,8.81,8.81,0,0,0,3.69.65c3,0,4.54-1,7.09-4.47a7,7,0,0,1-3.18.8C10.26,19.78,8.21,19.11,6.84,17.78ZM62.37,6c1.77,0,3.15-.7,7.4-5.21C68.29,2.18,67.6,2.59,66.6,2.59c-3.08,0-4.18-2.13-6.46-2.13-1.17,0-2.35.83-6.52,5.22,1.53-1.53,2.33-1.9,2.92-1.9C58.74,3.78,59.86,6,62.37,6Zm-40-4.92v0A3.38,3.38,0,0,1,21,1.94a3.33,3.33,0,0,1-1.6.13c-1.4,0-8.42-2-8.42-2L6.52,3.74s7.27,2.53,9,2.53C19.52,6.27,22.37,1.09,22.37,1.09ZM43,19.2h0c-1.9,0-2.45-1.29-4.29-4.2l-2.09-3.36,6.78-8.9C42.33,1,41.48.46,40.33.46s-1.87.64-6.15,4.87c.9-.67,1.28-.82,1.75-.82,1.07,0,2,.54,3.6,2.35l-3.22,4.25-4-6.4c-1.34-2.13-2.42-4-3.62-4-1.4,0-2.24,1-3.55,2.33-.79.79-1.52,1.67-2.13,2.37.78-.85,1.22-1,1.78-1,1.08,0,2,1.19,3.2,3.09l4.95,8.1L30.35,19c-1-1.38-1.7-1.84-2.81-1.84s-1.87.64-6.16,4.87c.91-.67,1.29-.82,1.75-.82,1.14,0,2.1.63,4,2.82l6.1-7.92L34,17.33c1.72,2.8,2.36,4,3.12,4.72,1,1,1.51,1.34,2,1.34a1.7,1.7,0,0,0,1-.32A37.42,37.42,0,0,0,44.88,18C43.91,19,43.48,19.2,43,19.2ZM61.46,8.75a10.63,10.63,0,0,0-2.61,4.66c-1.72,5.75-3.4,8-6.28,10.09,6.19-.88,8-1.49,10.85-11.06C64.9,7.44,66,6,66,6A10.56,10.56,0,0,0,61.46,8.75Zm-5.55,9.54h0c-1.13-4.74-3.45-12-4-13.88a8.77,8.77,0,0,0-1.3-2.83,2.74,2.74,0,0,0-1-.82A2.79,2.79,0,0,0,48.38.49a1.78,1.78,0,0,0-1.23.39c-.82.7-2.87,3.14-3.35,3.63a1.77,1.77,0,0,1,2.09-.31,1.91,1.91,0,0,1,.7.59,10.64,10.64,0,0,1,1.07,2.7C48.07,8.87,50.84,18,52,22.55A13,13,0,0,0,55.91,18.29ZM84,11.38a7.54,7.54,0,0,1-2.61-.84l-3.71,3.14a.06.06,0,0,1,0,.06c.26.16,2.49,1.52,3.69,1.52,3.45,0,5.27-4.83,5.27-4.83a2.73,2.73,0,0,1-1.19.84A2.65,2.65,0,0,1,84,11.38Zm-1,7.33a5.29,5.29,0,0,1-2.76,1.14,8.54,8.54,0,0,1-1.43,0c-2.78-.19-4.83-.66-6.2-2l5-4.07-.13-7.59-4.94,4.09,0,7.54c-1.39-1.41-2.06-3.57-2.06-6.52,0,0-.3-4.81,1.71-7.42,0,0-6.46,4-6.46,11.2A7.67,7.67,0,0,0,68,20.75a8.93,8.93,0,0,0,3.1,2.12,8.81,8.81,0,0,0,3.69.65h.71c4.83-.08,8-3.89,9.16-7.24A5.32,5.32,0,0,1,83,18.71ZM88.29,1l0,.05,0,0Zm0,.05a3.28,3.28,0,0,1-1.32.81A3.42,3.42,0,0,1,85.35,2C84,2,76.92,0,76.92,0L72.43,3.67s7.27,2.53,9,2.53C85.21,6.2,88,1.59,88.26,1.08Z"/>
</svg>