<?xml version="1.0" encoding="UTF-8"?>
<svg width="123px" height="108px" viewBox="0 0 123 108" version="1.1" xmlns="http://www.w3.org/2000/svg" xmlns:xlink="http://www.w3.org/1999/xlink">
    <!-- Generator: Sketch 47.1 (45422) - http://www.bohemiancoding.com/sketch -->
    <title>IRVECTOR</title>
    <desc>Created with Sketch.</desc>
    <defs>
        <polygon id="path-1" points="0.0389174775 0.414648442 0.0389174775 21.9899521 21.053785 21.9899521 21.053785 0.414648442 0.0389174775 0.414648442"></polygon>
    </defs>
    <g id="Page-1" stroke="none" stroke-width="1" fill="none" fill-rule="evenodd">
        <g id="Artboard" transform="translate(-658.000000, -70.000000)">
            <g id="IRVECTOR" transform="translate(658.500000, 70.187500)">
                <g id="Group-3" transform="translate(0.000000, 24.647736)">
                    <mask id="mask-2" fill="white">
                        <use xlink:href="#path-1"></use>
                    </mask>
                    <g id="Clip-2"></g>
                    <path d="M12.7701216,9.323979 C12.7701216,9.323979 12.3238679,9.85066219 12.3238679,10.377994 C12.3238679,10.377994 12.3238679,11.6752433 12.1617117,12.0806337 C12.1617117,12.0806337 11.9995556,12.2019265 11.6752433,12.6481802 C11.6752433,12.6481802 11.3107162,13.0127072 11.3107162,13.2968048 C11.3107162,13.2968048 10.3377793,13.9454295 9.60807658,13.2968048 C9.60807658,13.2968048 9.56721323,13.0937853 9.36484235,12.6883949 C9.36484235,12.6883949 9.44592042,12.404946 9.03988141,12.0806337 C9.03988141,12.0806337 8.59427629,11.715458 8.83751053,11.0266186 C8.83751053,11.0266186 8.83751053,10.5803649 8.59427629,10.0128183 C8.59427629,10.0128183 8.43212013,9.323979 8.79664717,8.83751053 C8.79664717,8.83751053 9.08074476,8.14802255 9.03988141,7.70241743 C9.03988141,7.70241743 8.75643245,6.81055857 8.9185886,6.44538291 C8.9185886,6.44538291 8.95945196,5.63460212 10.4182087,5.55352405 C10.4182087,5.55352405 11.5539505,5.43223124 11.9995556,6.44538291 C11.9995556,6.44538291 12.1208484,7.09400753 12.6481802,7.25616369 C12.6481802,7.25616369 13.1748634,8.1888859 12.7701216,9.323979 Z M20.3908124,6.68861714 C20.3908124,6.68861714 20.1884415,5.87783636 20.1884415,5.43223124 C20.1884415,5.43223124 20.0665,4.74274326 19.2965826,3.93196248 C19.2965826,3.93196248 18.2827823,2.87794746 18.2017042,2.5944985 C18.2017042,2.5944985 17.8371772,1.78371772 16.6612208,1.70263964 C16.6612208,1.70263964 15.2828934,1.58069821 14.9994445,1.2563859 C14.9994445,1.2563859 14.3099565,0.769917431 13.6613319,0.526683196 C13.6613319,0.526683196 12.0806337,0.769917431 11.350931,1.05401502 C11.350931,1.05401502 10.5401502,0.850995509 10.3377793,0.607761274 C10.3377793,0.607761274 9.40505707,0.121292805 7.82371024,0.850995509 C7.82371024,0.850995509 6.24301202,1.17530782 5.47309459,1.09422974 C5.47309459,1.09422974 4.09411864,0.89185886 3.44549401,0.486468469 C3.44549401,0.486468469 2.02695196,0.162156156 1.62156156,0.89185886 C1.62156156,0.89185886 0.769917431,1.20255006 0.648624626,1.3510851 L0.648624626,2.75665466 C1.29724925,3.9455836 1.29724925,3.9455836 1.29724925,3.9455836 C1.29724925,3.9455836 1.51324125,4.26989591 1.29724925,5.02684085 L1.29724925,5.56714516 C1.29724925,5.56714516 0.972936939,5.24283285 0.756296314,5.67546548 L0.432632625,9.99919723 C0.432632625,9.99919723 0,10.2158379 0,10.5401502 L0,12.5936957 L0.540304313,13.1346487 L0.540304313,14.6478899 C0.540304313,14.6478899 0.648624626,14.7555616 0.107671688,15.5125065 L0.215992,16.3777718 L0.540304313,17.3507087 C0.540304313,17.3507087 0.648624626,18.4313174 0.432632625,19.079942 C0.432632625,19.079942 0,19.6208949 0,20.1611992 L0.215992,21.6744405 L1.51324125,21.6744405 C1.51324125,21.6744405 2.27018619,21.3235346 2.63471323,21.3235346 C2.63471323,21.3235346 2.91881082,21.4046126 3.1211817,21.728925 C3.1211817,21.728925 4.29713815,21.8910811 4.49950903,21.810003 C4.49950903,21.810003 4.94576277,21.6069835 5.31093844,21.6478469 C5.31093844,21.6478469 5.91869971,21.5667688 6.44603153,21.7691397 L7.82371024,21.810003 L7.90543694,19.2155045 L8.47298349,18.8503289 L8.47298349,18.647958 L10.377994,18.647958 C10.377994,18.647958 10.9857553,19.2557193 11.067482,19.4989535 C11.067482,19.4989535 11.715458,19.9043439 11.9184775,20.0665 C11.9184775,20.0665 12.5268874,20.6340466 12.6073169,20.7962028 C12.6073169,20.7962028 13.2157267,21.1613784 13.4180976,21.2424565 C13.4180976,21.2424565 16.1345376,22.3775496 20.755988,21.8502178 C20.755988,21.8502178 20.8370661,16.4990646 20.7151247,16.0936742 C20.7151247,16.0936742 19.7830511,16.1345376 19.6208949,15.9315181 C19.6208949,15.9315181 18.8101141,15.7291472 18.3638604,15.8102253 C18.3638604,15.8102253 17.7560991,15.6480691 17.2696307,15.2828934 L16.8642403,15.1616006 L16.8642403,14.0667223 C16.8642403,14.0667223 17.4317868,13.9045661 17.7152358,13.7021952 C17.7152358,13.7021952 18.3638604,13.2968048 18.5260166,13.3370196 C18.5260166,13.3370196 19.2155045,13.0535706 19.3776607,12.8914144 C19.3776607,12.8914144 20.2695196,12.4451607 20.3908124,11.715458 C20.3908124,11.715458 20.7962028,10.9857553 20.5529685,10.5803649 C20.5529685,10.5803649 20.5127538,9.97260362 20.5938319,9.76958411 C20.5938319,9.76958411 20.755988,9.48613515 20.7962028,9.16182284 C20.7962028,9.16182284 21.0803003,8.51319821 20.9992223,8.22910063 C20.9992223,8.22910063 21.3235346,7.25616369 20.3908124,6.68861714 L20.3908124,6.68861714 Z" id="Fill-1" fill="#000000" mask="url(#mask-2)"></path>
                </g>
                <path d="M38.9174775,35.9986667 C38.9174775,35.9986667 38.9985556,37.295916 38.7553214,37.4580721 C38.7553214,37.4580721 37.8634625,37.6202283 37.6202283,38.1877748 C37.6202283,38.1877748 36.8094475,39.5661022 36.9716037,39.7282583 C36.9716037,39.7282583 36.322979,40.1336487 35.9986667,39.9714926 C35.9986667,39.9714926 35.4311202,40.0525706 35.0257298,40.376883 C35.0257298,40.376883 34.5392613,40.6201172 34.2960271,40.376883 C34.2960271,40.376883 34.214949,39.8093364 33.4041682,39.4850241 C33.4041682,39.4850241 32.4312313,38.1877748 32.4312313,37.7823844 C32.4312313,37.7823844 32.8366217,36.7283694 32.9987778,35.8365106 C32.9987778,35.8365106 32.6744655,34.8635736 32.6744655,33.9717148 C32.6744655,33.9717148 32.7555436,32.7555436 33.7284805,32.1879971 C33.7284805,32.1879971 35.0257298,31.5393724 35.1068079,31.2150601 C35.1068079,31.2150601 36.241901,31.133982 36.7283694,31.4582943 C36.7283694,31.4582943 37.5391502,32.1879971 38.0256187,32.3501532 C38.0256187,32.3501532 39.0796337,33.3230901 39.0796337,33.7284805 C39.0796337,33.7284805 38.6742433,35.268964 38.9174775,35.9986667 Z M47.9171442,31.6204505 C47.7549881,30.5664355 47.0252854,29.6745766 47.0252854,29.6745766 C46.5388169,29.1881082 45.8901923,29.1881082 45.8901923,29.1881082 C45.7280361,29.1881082 44.9172553,28.0530151 44.9172553,28.0530151 C44.8361773,27.4854685 44.1875526,27.1611562 44.1875526,27.1611562 C43.9443184,27.3233124 43.2956938,26.917922 43.2956938,26.917922 C43.2146157,26.6746877 42.1606007,26.2692973 42.1606007,26.2692973 C41.8362884,26.2692973 40.8633514,25.863907 40.8633514,25.863907 C40.376883,25.944985 39.9714926,25.6206727 39.9714926,25.6206727 C39.3228679,24.89097 34.1338709,25.0531262 34.1338709,25.0531262 C33.6474025,25.6206727 32.6744655,25.7017508 32.6744655,25.7017508 C32.1879971,26.2692973 30.7285916,26.1071412 30.7285916,26.1071412 C29.9178109,26.2692973 29.4313424,26.917922 29.4313424,26.917922 C29.3502643,27.3233124 27.6476247,27.971937 27.6476247,27.971937 C26.6746877,28.3773274 26.1882193,29.5124205 26.1882193,29.5124205 C26.2692973,29.7556547 25.3774385,31.052904 25.3774385,31.052904 C24.6477358,31.7015286 23.9991112,32.9176998 23.9991112,32.9176998 C23.7558769,33.160934 23.9991112,34.6203394 23.9991112,34.6203394 C23.7558769,35.4311202 23.7558769,36.5662133 23.6747988,36.9716037 C23.2454093,39.1179026 24.8098919,40.6201172 24.8098919,40.6201172 C24.6477358,41.430898 24.9720481,41.511976 24.9720481,41.511976 C25.3774385,41.7552103 26.0260631,42.4038349 26.0260631,42.4038349 C26.5936097,43.2956938 27.5665466,43.7821622 27.5665466,43.7821622 C28.0530151,43.7010842 29.5124205,44.592943 29.5124205,44.592943 C31.3772163,47.5928319 38.6742433,46.3766607 38.6742433,46.3766607 C39.3228679,46.2955827 39.4850241,45.646958 39.4850241,45.646958 C39.7282583,45.3226457 41.2687418,44.9983334 41.2687418,44.9983334 C42.9713815,44.592943 43.8632403,44.1064746 43.8632403,44.1064746 C44.592943,43.6200061 44.8361773,42.8903034 44.8361773,42.8903034 C46.4577388,42.1606007 47.4306758,41.1065857 47.4306758,41.1065857 C47.8360661,40.7822733 47.3495977,39.3228679 47.3495977,39.3228679 C47.3495977,38.5931652 48.0793004,36.6472914 48.0793004,36.6472914 C48.9711592,34.3771052 47.9171442,31.6204505 47.9171442,31.6204505 L47.9171442,31.6204505 Z" id="Fill-4" fill="#000000"></path>
                <path d="M50.754877,34.3771052 C50.754877,34.3771052 51.2413454,31.2961382 53.3493755,29.6745766 L54.8087809,27.8908589 C54.8087809,27.8908589 55.1330932,27.4043904 56.1060301,27.0800781 C56.1060301,27.0800781 57.7275917,26.5936097 58.051904,25.944985 C58.051904,25.944985 59.4568249,25.5661882 60.6464025,25.7828289 C60.6464025,25.7828289 62.4846047,25.7828289 63.024909,25.4585166 C63.024909,25.4585166 64.2144866,25.1335556 65.0791032,25.2418759 C65.0791032,25.2418759 66.8083365,24.8092433 67.2409691,24.9175636 C67.2409691,24.9175636 68.1062343,25.2418759 68.6465386,25.1342042 C68.6465386,25.1342042 70.0514596,24.9182122 70.7000842,25.0258839 C70.7000842,25.0258839 70.0521082,26.5397738 70.5924125,27.9446948 C70.5924125,27.9446948 70.9167248,28.2690071 70.5924125,30.8635056 C70.5924125,30.8635056 68.7542103,30.4308729 66.8083365,31.0794976 C66.8083365,31.0794976 66.0520401,31.7287708 65.2950952,31.5121302 C65.2950952,31.5121302 64.2138379,31.5121302 63.5652133,31.7281222 C63.5652133,31.7281222 63.3485727,32.2684265 62.9165887,32.3767468 C62.9165887,32.3767468 61.6193394,32.3767468 61.5116678,32.7010591 C61.5116678,32.7010591 61.1867068,33.3503324 60.8630431,33.4580041 C60.8630431,33.4580041 60.4304105,33.7823164 60.2137699,34.430941 C60.2137699,34.430941 59.4574736,35.7281903 60.1060982,37.1337598 C60.1060982,37.1337598 60.8623945,37.8907048 60.9707148,38.3226888 C60.9707148,38.3226888 61.5116678,38.7553214 61.8359801,38.6470011 C61.8359801,38.6470011 62.3756358,38.8629931 62.9165887,38.8629931 C62.9165887,38.8629931 63.1332293,38.8636417 63.6735336,39.2956257 C63.6735336,39.2956257 64.5381503,40.160891 64.8624626,39.9442503 C64.8624626,39.9442503 64.8624626,39.8365786 65.5110872,40.2685626 C65.5110872,40.2685626 68.970851,40.4845546 70.1597799,40.1602423 C70.1597799,40.1602423 70.8090531,39.9442503 70.5924125,41.1331793 C70.5924125,41.1331793 70.1597799,41.4574916 70.4840922,42.3227568 C70.4840922,42.3227568 70.8090531,43.2956938 70.5924125,44.1603104 C70.5924125,44.1603104 70.0514596,45.1332473 70.3757719,45.6735516 C70.3757719,45.6735516 69.5105066,45.997864 69.7271473,46.3221763 C69.7271473,46.3221763 68.3222263,46.2145046 67.997914,46.5388169 C67.997914,46.5388169 66.7006648,46.6471372 65.7277278,46.1061843 C65.7277278,46.1061843 64.8624626,46.3228249 64.5381503,46.4304966 C64.5381503,46.4304966 62.2686127,46.5388169 61.8359801,46.1061843 C61.8359801,46.1061843 61.4033474,46.1061843 61.1867068,46.3221763 C61.1867068,46.3221763 60.7540742,46.6464886 60.3220902,46.6464886 C60.3220902,46.6464886 59.7817859,46.5388169 59.2408329,46.1061843 C59.2408329,46.1061843 58.051904,45.8895436 57.4032794,45.6735516 C57.4032794,45.6735516 56.1066788,45.024927 55.8900381,44.3763024 C55.8900381,44.3763024 55.0254215,43.5116858 54.7011092,43.5116858 C54.7011092,43.5116858 54.1608049,42.9707328 53.9441642,42.4304285 C53.9441642,42.4304285 52.7552353,41.8901242 52.646915,41.2414996 C52.646915,41.2414996 52.3226027,40.592875 51.9982904,40.592875 C51.9982904,40.592875 51.2413454,40.1602423 51.1336737,39.7282583 C51.1336737,39.7282583 50.5927208,38.2150171 50.9170331,37.0254395 C50.9170331,37.0254395 50.1600882,35.4038779 50.754877,34.3771052" id="Fill-5" fill="#000000"></path>
                <path d="M72.5376378,25.8911492 C72.5376378,25.8911492 72.6466067,27.4043904 72.4299661,27.8370231 C72.4299661,27.8370231 72.3209971,28.3773274 72.5376378,29.025952 C72.5376378,29.025952 72.5382864,29.9988889 72.4299661,30.6475136 C72.4299661,30.6475136 72.4293175,31.6204505 72.5376378,33.2420121 C72.5376378,33.2420121 72.7542784,33.0253714 72.7542784,34.214949 C72.7542784,34.214949 72.9702704,34.6475816 72.6459581,35.9448309 C72.6459581,35.9448309 72.5382864,36.8094475 72.4299661,37.9983765 C72.4299661,37.9983765 72.5376378,38.5393294 72.2133255,38.9713134 C72.2133255,38.9713134 72.3209971,39.8365786 72.5376378,40.2685626 L72.4299661,41.1338279 C72.4299661,41.1338279 72.8619501,41.6741322 72.6459581,42.6470691 C72.6459581,42.6470691 72.6453095,43.4040141 72.5376378,44.7012633 L72.6459581,45.8901923 C72.6459581,45.8901923 73.402903,45.56588 73.7272153,46.2145046 L74.2675196,46.2145046 C74.2675196,46.2145046 75.4570972,45.997864 75.9974015,46.2145046 C75.9974015,46.2145046 76.7536978,46.4304966 77.7266348,46.1061843 C77.7266348,46.1061843 78.4835797,45.9985126 78.807892,46.1061843 C78.807892,46.1061843 79.4565167,46.3228249 80.1051413,45.9985126 L80.6454456,45.8901923 C80.6454456,45.8901923 80.1051413,42.3227568 80.4294536,41.7824525 C80.4294536,41.7824525 80.6460942,41.1338279 80.5377739,40.592875 C80.5377739,40.592875 80.5377739,39.6205866 80.5377739,39.187954 L81.2940702,38.9713134 C81.2940702,38.9713134 81.8350232,38.8636417 82.0510152,39.2956257 C82.0510152,39.2956257 82.2676558,39.83593 82.4836478,40.376883 C82.4836478,40.376883 82.5913195,41.0255076 83.0239521,41.2414996 C83.0239521,41.2414996 83.5642564,41.6741322 83.5642564,41.9984445 C83.5642564,41.9984445 83.4565847,42.3227568 83.780897,42.5387488 C83.780897,42.5387488 84.4295217,42.6470691 84.6455137,43.0797018 C84.6455137,43.0797018 84.8621543,43.4033655 85.0781463,43.9443184 C85.0781463,43.9443184 85.185818,44.592943 85.5101303,45.0255756 C85.5101303,45.0255756 86.0504346,45.3492393 86.1587549,45.8901923 C86.1587549,45.8901923 86.0504346,46.1061843 86.4830672,46.5388169 C86.4830672,46.5388169 87.2406608,45.997864 87.9969571,46.2145046 C87.9969571,46.2145046 88.8615737,46.5388169 89.185886,46.5388169 C89.185886,46.5388169 90.0505027,46.5388169 90.374815,46.4304966 C90.374815,46.4304966 91.1317599,46.3228249 91.4560722,46.4304966 C91.4560722,46.4304966 91.4560722,46.6471372 92.4290092,46.4304966 C92.4290092,46.4304966 93.2936258,46.3221763 93.9422504,46.5388169 L94.9151874,46.4304966 C94.9151874,46.4304966 94.590875,45.7825206 93.9422504,45.0255756 C93.2936258,44.2686307 93.2936258,44.2686307 93.2936258,44.2686307 C93.2936258,44.2686307 92.8616418,43.4033655 92.4290092,42.6470691 C92.4290092,42.6470691 91.6720642,41.4581402 91.3477519,41.1338279 C91.3477519,41.1338279 90.6991273,40.0525706 90.4831353,39.7282583 C90.4831353,39.7282583 89.833862,38.9713134 89.401878,38.4310091 C89.401878,38.4310091 88.4289411,37.4580721 88.4289411,37.0254395 C88.4289411,37.0254395 88.3212694,36.2684946 87.9969571,36.1608229 C87.9969571,36.1608229 87.7803165,35.4038779 87.8886368,35.0795656 C87.8886368,35.0795656 88.3212694,34.214949 89.2942064,33.5663244 C89.2942064,33.5663244 89.833862,32.8093794 90.0505027,32.5933874 C90.0505027,32.5933874 90.4837839,32.0530831 90.9157679,31.8364425 C90.9157679,31.8364425 91.0234396,31.1878179 91.6720642,30.8635056 C91.6720642,30.8635056 92.6456498,30.1072093 93.1859541,29.241944 C93.1859541,29.241944 94.6985467,28.1613354 94.9151874,27.6203824 C94.9151874,27.6203824 95.2394997,25.8905006 95.6721323,25.7828289 C95.6721323,25.7828289 90.8074476,25.9988209 90.4831353,25.7828289 C90.4831353,25.7828289 87.9963085,25.4585166 86.8073795,25.7828289 C86.8073795,25.7828289 86.5913875,26.2154615 86.2670752,26.5397738 C86.2670752,26.5397738 85.7267709,27.7287028 85.0781463,27.8370231 C85.0781463,27.8370231 84.212881,28.593968 83.996889,29.1342723 C83.996889,29.1342723 83.4565847,29.8905686 83.0239521,29.9988889 C83.0239521,29.9988889 82.9156318,29.8912173 82.3753275,30.7558339 C82.3753275,30.7558339 82.2676558,30.9718259 81.5107108,31.5121302 L80.6454456,31.5121302 C80.6454456,31.5121302 80.2134616,29.457936 80.4294536,29.025952 C80.4294536,29.025952 80.6460942,27.4043904 80.5377739,26.2154615 C80.5377739,26.2154615 80.3211333,25.8905006 80.4294536,25.1342042 L79.1322043,25.0258839 C79.1322043,25.0258839 77.9426268,25.4585166 77.0780102,25.3501962 C77.0780102,25.3501962 75.5654175,25.2418759 75.0244646,25.1342042 C75.0244646,25.1342042 74.4841603,25.0258839 74.37584,25.3501962 C74.37584,25.3501962 73.618895,25.1342042 73.2945827,25.0258839 C72.9702704,24.9182122 72.9702704,24.9182122 72.9702704,24.9182122 C72.9702704,24.9182122 72.3209971,25.4585166 72.5376378,25.8911492" id="Fill-6" fill="#000000"></path>
                <g id="Group-10" fill="#000000">
                    <path d="M1.40492094,1.89138941 C1.40492094,1.89138941 2.16186588,1.7830691 2.27018619,1.24276478 C2.27018619,1.24276478 4.54037238,1.02677278 4.97235638,1.02677278 C4.97235638,1.02677278 7.8911672,1.24276478 8.21547951,0.91845247 C8.21547951,0.91845247 8.1071592,1.3510851 8.53979182,1.5670771 C8.53979182,1.5670771 8.97242445,1.5670771 9.08074476,1.89138941 C9.08074476,1.89138941 8.97242445,4.05390391 9.18841645,4.91852054 C9.18841645,4.91852054 9.4057057,8.70194798 9.29673676,10.2158379 C9.29673676,10.2158379 9.18841645,15.0798739 9.40505707,16.4854435 C9.40505707,16.4854435 9.51337739,18.1076537 9.29673676,18.86395 C9.29673676,18.86395 8.64811214,19.2965826 8.86410414,19.6208949 C8.86410414,19.6208949 8.32379982,20.0528789 8.53979182,20.3771912 C8.53979182,20.3771912 0.864616626,20.9181442 0.648624626,20.5938319 C0.648624626,20.5938319 0.432632625,19.9452072 0.540304313,18.86395 C0.540304313,18.86395 0.864616626,17.3507087 0.756296314,16.2694515 C0.756296314,16.2694515 0.864616626,14.2159059 1.18892894,13.674953 C1.18892894,13.674953 1.18892894,13.1346487 0.756296314,12.3777037 C0.756296314,12.3777037 0.540304313,10.4318299 0.864616626,9.78320523 C0.864616626,9.78320523 1.40492094,8.81026829 1.40492094,8.37763567 C1.40492094,8.37763567 0.972936939,5.24283285 1.40492094,4.48588791 C1.40492094,4.48588791 1.08060863,2.64833435 1.40492094,1.89138941" id="Fill-7"></path>
                    <path d="M13.5127968,7.08038641 C13.5127968,7.08038641 13.2968048,7.51301904 13.6211171,8.16164367 C13.6211171,8.16164367 14.0531011,8.26996398 14.3774135,8.81026829 C14.3774135,8.81026829 14.7023744,8.81026829 15.1343584,9.45889292 C15.1343584,9.45889292 15.6753113,10.3241582 16.1072953,10.7561422 L16.75592,11.2964465 L17.0802323,12.0533914 C17.0802323,12.0533914 17.6205366,12.2693834 18.4858018,12.486024 C18.4858018,12.486024 19.4587388,13.134 20.1073634,13.2423204 C20.1073634,13.2423204 20.6476677,13.890945 20.8643083,14.2152573 C20.8643083,14.2152573 21.2962923,14.9722022 21.8365967,15.1881942 C21.8365967,15.1881942 22.1615576,15.1881942 21.6206047,15.7291472 C21.6206047,15.7291472 21.0796517,16.3771232 21.187972,16.8097558 C21.187972,16.8097558 20.539996,17.2423884 19.9990431,17.2423884 C19.9990431,17.2423884 19.0261061,17.4583804 18.8101141,17.0263964 C18.8101141,17.0263964 19.1344265,16.4860921 18.1614895,16.5937638 C18.1614895,16.5937638 17.4045446,16.1617798 15.0260381,16.5937638 C15.0260381,16.5937638 13.6204685,16.9180761 13.0801642,16.4854435 C13.0801642,16.4854435 12.7558519,17.3507087 12.9724925,17.8910131 C12.9724925,17.8910131 12.8641722,18.5396377 12.9724925,19.2965826 C12.9724925,19.2965826 13.5127968,19.6208949 13.8371091,20.2695196 C13.8371091,20.2695196 14.1614215,20.8098239 14.4857338,21.1341362 C14.4857338,21.1341362 14.8100461,21.4584485 15.566991,21.6744405 C15.566991,21.6744405 15.566991,21.5667688 16.4316076,21.5667688 C16.4316076,21.5667688 17.0802323,21.1341362 17.5128649,21.4584485 C17.5128649,21.4584485 17.9454975,21.7827608 19.0261061,21.7827608 C19.0261061,21.7827608 21.187972,21.5661202 22.160909,21.3501282 C22.160909,21.3501282 23.4581582,20.3778399 24.3234235,20.4855116 C24.3234235,20.4855116 25.1880401,20.3778399 25.7283444,19.8368869 C25.7283444,19.8368869 26.376969,19.7292152 27.349906,19.1882623 C27.349906,19.1882623 28.4311632,19.079942 29.0797878,18.3236457 C29.0797878,18.3236457 29.5124205,17.1340681 29.5124205,16.8097558 L29.8367328,13.5666327 C29.8367328,13.5666327 29.8367328,13.2423204 29.0797878,12.5936957 C29.0797878,12.5936957 29.0797878,12.1617117 28.6471552,11.5130871 C28.6471552,11.5130871 28.4311632,10.7561422 27.9985306,10.5401502 C27.9985306,10.5401502 27.349906,9.99919723 27.2422343,9.67488492 C27.2422343,9.67488492 26.2692973,9.3505726 25.6206727,9.02626029 C25.6206727,9.02626029 24.5394155,8.70194798 24.6477358,8.26996398 C24.6477358,8.26996398 24.4310952,8.26931535 23.3504865,7.72901104 C23.3504865,7.72901104 22.4852213,8.05332335 22.3775496,6.64840241 C22.3775496,6.64840241 21.7282763,6.5400821 22.160909,5.67546548 C22.160909,5.67546548 21.512933,5.02619222 22.5935416,4.48588791 C22.5935416,4.48588791 23.5664785,3.83791191 24.2151032,4.59420822 C24.2151032,4.59420822 23.6747988,5.13516116 25.944985,4.91852054 C25.944985,4.91852054 26.8096017,4.81020022 27.5665466,4.81020022 C27.5665466,4.81020022 28.1068509,4.48588791 28.5394835,5.13451254 C28.5394835,5.13451254 28.7554755,5.45882485 29.2957798,5.02684085 L29.9444045,4.59420822 C29.9444045,4.59420822 29.9444045,4.3775676 29.5124205,3.83726329 C29.5124205,3.83726329 29.0797878,3.29695897 29.0797878,2.54001403 C29.0797878,2.54001403 28.9714675,1.99970972 28.6471552,1.5670771 C28.6471552,1.5670771 28.3228429,1.5670771 27.9985306,0.91845247 C27.9985306,0.91845247 26.376969,0.161507532 23.3504865,0.594140157 C23.3504865,0.594140157 22.2692293,0.810780782 21.187972,1.02677278 C21.187972,1.02677278 20.5393474,1.02677278 19.5664105,1.67539741 L17.6205366,1.99970972 C17.6205366,1.99970972 16.8642403,2.10803003 16.1072953,3.29695897 C16.1072953,3.29695897 15.3503504,3.51295097 15.2426787,4.1615756 C15.2426787,4.1615756 14.9177178,4.91852054 14.3774135,5.13451254 C14.3774135,5.13451254 13.9454295,5.24283285 14.1614215,6.3240901 C14.1614215,6.3240901 13.7294375,6.5400821 13.5127968,7.08038641" id="Fill-9"></path>
                </g>
                <path d="M47.7763927,18.8613555 C47.2503581,18.2860254 47.5655897,15.6208269 47.5655897,15.6208269 L46.5926527,15.7291472 C45.8032766,15.613692 43.9624799,15.613692 43.9624799,15.613692 C43.4364453,15.7284985 42.6470691,15.2965145 42.6470691,15.2965145 C42.6470691,15.3977 41.8803948,15.4327257 41.0235617,15.439212 C40.9619424,14.8223699 40.8581624,14.0777489 40.6940604,13.7826247 C40.6940604,13.7826247 40.6940604,13.2423204 41.0949104,12.4853754 C41.0949104,12.4853754 41.2953354,10.5395015 40.9943736,9.89087692 C40.9943736,9.89087692 40.4936354,8.91729135 40.4936354,8.48530735 C40.4936354,8.48530735 40.8944854,5.34985591 40.4936354,4.5935596 C40.4936354,4.5935596 40.7945972,2.75535741 40.4936354,1.9990611 C40.4936354,1.9990611 39.7918235,1.89074078 39.6912867,1.35043647 C39.6912867,1.35043647 37.5871484,1.13444447 37.1856498,1.13444447 C37.1856498,1.13444447 34.4782906,1.35043647 34.1779774,1.02612416 C34.1779774,1.02612416 34.2785142,1.45810816 33.8770156,1.67474878 C33.8770156,1.67474878 33.4761656,1.67474878 33.3756287,1.9990611 C33.3756287,1.9990611 33.4761656,4.1615756 33.2757406,5.02619222 C33.2757406,5.02619222 33.0746669,8.80961967 33.1745551,10.3228609 C33.1745551,10.3228609 33.2757406,15.1875456 33.0753155,16.5931152 C33.0753155,16.5931152 32.9747787,18.2146767 33.1745551,18.9716217 C33.1745551,18.9716217 33.7771274,19.4036057 33.5760538,19.727918 C33.5760538,19.727918 34.0774406,20.1605506 33.8770156,20.4848629 C33.8770156,20.4848629 40.9943736,21.0251672 41.1947986,20.7008549 C41.1947986,20.7008549 41.2058252,20.6638833 41.220095,20.6003181 C42.7956042,20.6100475 44.6201853,20.7015036 44.6201853,20.7015036 C44.8828782,20.1261735 45.6716058,20.7015036 45.6716058,20.7015036 L46.8553457,20.7015036 L46.9870165,20.1268221 C46.9870165,19.5521407 47.6447219,19.6662987 47.6447219,19.6662987 C47.9074149,19.4360369 47.7763927,18.8613555 47.7763927,18.8613555" id="Fill-11" fill="#000000"></path>
                <path d="M63.1325807,14.2152573 C63.1325807,14.2152573 62.9159401,14.4312493 62.8082684,14.8638819 C62.8082684,14.8638819 62.0513234,15.2965145 61.6193394,15.0805225 C61.6193394,15.0805225 61.1867068,14.5402182 60.8630431,14.3235776 C60.8630431,14.3235776 60.2137699,14.106937 60.6464025,13.5666327 C60.6464025,13.5666327 61.0783865,13.3506407 61.2950271,12.918008 C61.2950271,12.918008 61.5110191,12.4853754 61.9436518,12.2693834 C61.9436518,12.2693834 62.1596438,11.6214074 62.8082684,12.702016 C62.8082684,12.702016 63.456893,12.8103364 63.456893,13.458961 C63.456893,13.458961 63.5645647,14.106937 63.1325807,14.2152573 Z M73.402903,16.9180761 C73.402903,16.9180761 73.1862624,16.2694515 72.8619501,15.7291472 C72.8619501,15.7291472 72.2139741,14.6478899 72.1056538,13.674953 C72.1056538,13.674953 71.3487088,12.5936957 71.3487088,11.9450711 C71.3487088,11.9450711 70.7007328,10.9721342 70.4840922,10.2158379 C70.4840922,10.2158379 69.9431393,9.02690892 70.0514596,8.48595598 C70.0514596,8.48595598 69.7264986,7.72901104 69.2945146,6.97271473 C69.2945146,6.97271473 68.861882,5.45882485 68.9702023,4.81020022 C68.9702023,4.81020022 68.861882,4.70252854 68.3215777,3.9455836 C68.3215777,3.9455836 67.7806248,2.86432635 67.9972654,2.10803003 C67.9972654,2.10803003 67.5652814,1.5670771 67.5652814,1.1350931 C67.5652814,1.1350931 65.9437198,0.919101095 65.2950952,1.02677278 C65.2950952,1.02677278 64.2138379,1.5670771 63.5652133,1.24276478 C63.5652133,1.24276478 61.7276598,1.1350931 61.5116678,0.70246047 C61.5116678,0.70246047 60.5380822,0.594788782 59.7811373,0.70246047 C59.7811373,0.70246047 59.3491533,1.1350931 58.9171693,1.1350931 C58.9171693,1.1350931 59.6734656,1.67539741 58.051904,1.24276478 C58.051904,1.24276478 55.7810692,0.919101095 54.5921403,1.02677278 C54.5921403,1.02677278 54.3761483,1.78371772 53.9435156,1.78371772 C53.9435156,1.78371772 53.6192033,4.05325529 53.8358439,4.81020022 C53.8358439,4.81020022 54.0524846,4.70252854 54.1601562,5.67546548 C54.1601562,5.67546548 54.8087809,5.24283285 54.8087809,6.21576979 C54.8087809,6.21576979 55.7817178,5.89145748 56.4303424,6.21576979 C56.4303424,6.21576979 56.1066788,6.7560741 56.3220221,7.29702704 C56.3220221,7.29702704 56.4303424,7.62133935 56.1060301,8.48595598 C56.1060301,8.48595598 55.5657258,9.89152554 55.6740461,10.4318299 C55.6740461,10.4318299 55.1330932,10.7561422 55.1330932,11.1887748 C55.1330932,11.1887748 55.2407649,11.8367508 54.9164526,12.2693834 C54.9164526,12.2693834 54.4844686,12.486024 54.4844686,13.458961 C54.4844686,13.458961 54.3761483,14.1075856 54.0524846,14.7562102 C54.0524846,14.7562102 53.5115316,15.2965145 53.5115316,15.6208269 C53.5115316,15.6208269 53.1878679,16.0534595 53.0795476,16.7020841 C53.0795476,16.7020841 52.7552353,17.2423884 52.4302744,17.6750211 C52.4302744,17.6750211 51.9976417,18.7562783 51.8899701,19.1882623 C51.8899701,19.1882623 51.3490171,19.5125746 51.2413454,19.8368869 C51.2413454,19.8368869 50.4844005,20.1611992 50.0517679,19.7285666 C50.0517679,19.7285666 50.5927208,20.7021522 50.1607368,21.1341362 C50.1607368,21.1341362 51.6733294,20.8098239 52.6462664,21.0258159 C52.6462664,21.0258159 54.2678279,21.0258159 55.1330932,21.0258159 C55.1330932,21.0258159 56.3220221,20.8098239 56.8623264,20.9181442 C56.8623264,20.9181442 56.6469831,20.3771912 57.4032794,20.2695196 C57.4032794,20.2695196 57.5109511,19.7285666 58.1595757,19.4042543 C58.1595757,19.4042543 58.3762163,19.6208949 60.2137699,18.647958 C60.2137699,18.647958 61.6186908,18.4313174 62.1596438,18.3236457 C62.1596438,18.3236457 63.024909,17.6743724 63.5652133,18.1070051 C63.5652133,18.1070051 63.8901743,18.5396377 64.6464706,18.7556297 C64.6464706,18.7556297 65.5117358,18.9722703 65.6194075,19.6208949 C65.6194075,19.6208949 65.6187589,20.0528789 66.0513915,20.5938319 C66.0513915,20.5938319 66.2673835,20.8098239 66.7000161,21.0258159 C66.7000161,21.0258159 69.6194756,20.5938319 70.4840922,20.9181442 C70.4840922,20.9181442 71.7813415,21.0264645 72.1056538,20.8098239 C72.1056538,20.8098239 72.970919,20.2688709 73.402903,20.3771912 C73.402903,20.3771912 73.834887,19.7285666 73.834887,19.2965826 C73.834887,19.2965826 73.402903,17.3507087 73.402903,16.9180761 L73.402903,16.9180761 Z" id="Fill-12" fill="#000000"></path>
                <path d="M76.9703385,17.9993334 C76.9703385,17.9993334 77.4029711,16.1617798 77.0786588,14.6478899 C77.0786588,14.6478899 77.1863305,14.3235776 76.6460262,13.3506407 C76.6460262,13.3506407 76.5377058,11.9457197 76.8620182,11.4047668 C76.8620182,11.4047668 76.8626668,10.7561422 77.0786588,9.78320523 C77.0786588,9.78320523 77.4029711,4.26989591 77.2946508,3.29695897 C77.2946508,3.29695897 76.8626668,2.97264666 76.7543465,2.64833435 C76.7543465,2.64833435 76.6460262,2.21570172 76.6460262,1.78371772 C76.6460262,1.3510851 76.6460262,1.3510851 76.6460262,1.3510851 C76.6460262,1.3510851 77.2946508,1.78371772 77.2946508,1.1350931 C77.2946508,1.1350931 80.4301022,1.3510851 80.6460942,0.91845247 C80.6460942,0.91845247 81.7267028,1.67539741 82.4836478,1.3510851 C82.4836478,1.3510851 83.1316238,1.24341341 83.6725767,1.3510851 C83.6725767,1.3510851 83.6732253,1.78371772 84.2135297,1.78371772 C84.2135297,1.78371772 85.2941383,2.86432635 85.6184506,3.40527929 C85.6184506,3.40527929 86.7003565,4.48588791 87.1323405,4.70252854 C87.1323405,4.70252854 87.8886368,5.35115316 87.9969571,5.67546548 C88.1052774,5.99977779 87.8886368,5.35115316 87.8886368,5.35115316 C87.8886368,5.35115316 88.3206208,6.1080981 88.5372614,6.21576979 C88.5372614,6.21576979 89.2942064,6.86439441 89.6185187,6.43176179 C89.6185187,6.43176179 89.942831,6.1080981 90.2671433,5.56714516 C90.2671433,5.56714516 90.6997759,2.43234235 90.2671433,1.99970972 C90.2671433,1.99970972 90.6997759,1.7830691 90.5914556,1.24276478 C90.5914556,1.24276478 91.9970252,0.919101095 91.9970252,0.70246047 C91.9970252,0.486468469 93.0776338,1.1350931 93.0776338,1.1350931 C93.0776338,1.1350931 93.8339301,0.91845247 94.0505707,0.91845247 C94.0505707,0.91845247 94.806867,1.3510851 95.0235077,1.24276478 L95.8887729,1.1350931 C95.8887729,1.1350931 95.7804526,1.89138941 96.1047649,2.21570172 C96.1047649,2.21570172 96.7527409,2.64833435 96.6450692,3.08096697 L96.1047649,3.83726329 C96.1047649,3.83726329 95.9964446,7.94565167 96.3207569,8.81026829 C96.3207569,8.81026829 96.6457179,10.4318299 96.5373975,11.4047668 C96.5373975,11.4047668 95.9964446,12.0533914 96.1047649,12.5936957 C96.1047649,12.5936957 95.9964446,15.0798739 96.3207569,15.8368189 C96.3207569,15.8368189 96.6450692,17.1340681 96.7533895,17.7826927 C96.7533895,17.7826927 96.1054135,18.7556297 96.2130852,18.9722703 C96.2130852,18.9722703 95.9964446,20.5938319 96.1047649,20.9181442 C96.1047649,20.9181442 94.2672114,20.7015036 93.942899,21.0258159 C93.942899,21.0258159 92.4290092,21.1341362 91.8887049,21.0258159 C91.8887049,21.0258159 90.3754636,19.1882623 89.726839,18.7556297 C89.726839,18.7556297 88.53791,17.9986847 88.4295897,17.4583804 C88.4295897,17.4583804 87.3476839,15.9451392 86.9156999,15.7291472 C86.9156999,15.7291472 85.0787949,15.1881942 84.537842,15.4048349 C84.537842,15.4048349 84.4295217,16.0534595 84.1052093,17.2423884 C84.1052093,17.2423884 83.2405927,18.4313174 83.564905,19.4042543 C83.564905,19.4042543 82.8079601,20.1611992 83.1322724,20.4855116 C83.1322724,20.4855116 82.4836478,20.5938319 82.1593355,20.8098239 C82.1593355,20.8098239 81.7267028,20.0528789 81.1863985,20.2695196 C81.1863985,20.2695196 80.212813,20.2695196 79.780829,20.4855116 L78.7002203,20.4855116 C78.7002203,20.4855116 77.8349551,20.0528789 77.6189631,20.3771912 L76.6460262,20.3771912 L76.5377058,19.4042543 C76.5377058,19.4042543 77.0786588,18.5396377 76.9703385,17.9993334" id="Fill-13" fill="#000000"></path>
                <g id="Group-19" transform="translate(66.808336, 0.648625)" fill="#000000">
                    <path d="M32.9721842,18.5396377 L32.9721842,18.5396377 C32.877485,18.6025543 32.8301354,18.6343369 32.9721842,18.5396377" id="Fill-14"></path>
                    <path d="M46.7009731,12.2693834 C46.2683404,12.3777037 46.1606687,13.1346487 46.1606687,13.1346487 C45.2960521,13.458961 45.1877318,13.7832733 45.1877318,13.7832733 C44.6474275,14.7562102 43.6744906,14.4318979 43.6744906,14.4318979 C43.0258659,14.6478899 42.5932333,13.890945 42.5932333,13.890945 C42.268921,13.4583124 41.9446087,13.1346487 41.9446087,13.1346487 C42.268921,12.3777037 41.9446087,10.1075175 41.9446087,10.1075175 C41.4043044,7.83733135 42.1606007,8.26996398 42.1606007,8.26996398 L42.052929,7.29702704 C42.2695696,6.97271473 43.2418579,6.97271473 43.2418579,6.97271473 C44.4307869,6.7560741 44.2147949,6.43176179 44.2147949,6.43176179 C44.9717398,6.86439441 45.1877318,7.18870673 45.1877318,7.18870673 C45.9446767,7.29702704 46.2689891,7.83733135 46.2689891,7.83733135 C46.1613174,8.7025966 46.7009731,9.24290092 46.7009731,9.24290092 C47.2412774,10.9721342 46.7009731,12.2693834 46.7009731,12.2693834 Z M54.7011092,8.16164367 C54.7011092,8.16164367 54.3761483,6.7560741 53.8358439,6.43176179 C53.8358439,6.43176179 52.6462664,5.02619222 52.862907,4.81020022 C52.862907,4.81020022 52.1059621,3.9455836 51.5656577,3.7295916 C51.5656577,3.7295916 51.0253534,2.64833435 50.3767288,2.54001403 C50.3767288,2.54001403 49.2954716,2.10803003 49.4037919,1.78371772 C49.4037919,1.78371772 48.6468469,1.1350931 47.9982223,1.02677278 C47.9982223,1.02677278 47.1329571,0.810780782 46.7009731,0.486468469 C46.7009731,0.486468469 40.6473594,-0.162156156 34.4854255,0.486468469 C34.4854255,0.486468469 34.1611132,0.162156156 33.6208089,0.70246047 C33.3697911,0.952829575 33.6214575,1.72923325 33.2964965,1.89138941 C33.2964965,1.89138941 33.8938798,2.30067155 33.8368009,3.08096697 C33.7537769,4.21800594 33.9042578,5.92648321 33.6208089,9.67488492 C33.6208089,9.67488492 33.4041682,10.1075175 33.4041682,10.9721342 C33.4041682,10.9721342 33.0798559,11.6207588 33.5124885,11.9450711 C33.5124885,11.9450711 33.9451212,12.8103364 33.6208089,13.7832733 C33.6208089,13.7832733 33.5124885,15.2965145 33.8368009,15.8368189 C33.8368009,15.8368189 33.7291292,17.1340681 33.6208089,17.7826927 C33.6208089,17.7826927 33.2964965,18.3236457 32.9721842,18.5396377 C33.093477,18.4585596 33.2964965,18.3236457 33.2964965,18.3236457 C33.2964965,18.3236457 32.5395516,18.86395 32.9721842,19.6208949 C32.9721842,19.6208949 33.2964965,19.9452072 33.2964965,20.2695196 L34.2694335,20.4855116 C34.2694335,20.4855116 35.1334015,20.0528789 35.6743544,20.2695196 C35.6743544,20.2695196 36.5396197,19.7285666 37.4042363,20.2695196 C37.4042363,20.2695196 39.4584305,20.7021522 40.4313674,20.4855116 C40.4313674,20.4855116 41.94396,20.0535276 42.484913,20.1611992 C42.484913,20.1611992 43.5655216,20.1611992 44.4307869,20.5938319 C44.4307869,20.5938319 47.7822303,20.5931832 48.1065426,19.7285666 L49.1877999,19.4042543 C49.1877999,19.4042543 50.1607368,18.5396377 51.0253534,18.4313174 C51.0253534,18.4313174 52.430923,17.9986847 52.9712273,17.4583804 C52.9712273,17.4583804 54.0524846,16.2694515 54.0524846,14.8638819 C54.0524846,14.8638819 54.3767969,13.5666327 54.9171012,13.458961 C54.9171012,13.458961 55.3497338,9.78320523 54.7011092,8.16164367 L54.7011092,8.16164367 Z" id="Fill-16"></path>
                    <path d="M51.6467358,38.9174775 C51.6467358,38.9174775 51.7440295,38.766348 51.6272771,38.6625681 C51.603278,38.7384571 51.6000349,38.8240756 51.6467358,38.9174775" id="Fill-17"></path>
                    <path d="M50.5116427,37.8634625 C49.9440962,38.5931652 49.9440962,41.0255076 49.9440962,41.0255076 C50.0251743,42.3227568 48.8900812,42.6470691 48.8900812,42.6470691 C48.8090031,41.430898 48.3225346,41.1065857 48.3225346,41.1065857 C48.0793004,40.2147268 47.3495977,39.403946 47.3495977,39.403946 C47.1063634,38.8363995 47.5117538,38.1066968 47.5117538,38.1066968 C48.4036127,37.4580721 47.5928319,35.1878859 47.5928319,35.1878859 C47.5117538,33.9717148 46.8631292,33.160934 46.8631292,33.160934 C47.5928319,33.160934 47.4306758,32.9176998 47.4306758,32.9176998 C48.4036127,30.7285916 48.1603785,28.8637958 48.1603785,28.8637958 C48.8090031,28.6205616 49.2954716,26.8368439 49.2954716,26.8368439 C50.0251743,26.1071412 50.6737989,26.5936097 50.6737989,26.5936097 C50.9981112,28.2962493 50.5116427,34.7014175 50.5116427,34.7014175 C50.754877,35.9986667 51.0791893,36.8905256 51.0791893,36.8905256 C50.9981112,37.295916 50.5116427,37.8634625 50.5116427,37.8634625 Z M48.727925,19.2155045 C48.8900812,21.728925 50.0251743,22.2964715 50.0251743,22.2964715 L50.0251743,23.2694084 C49.3765496,24.4855796 47.9171442,24.4855796 47.9171442,24.4855796 C48.1603785,23.9180331 47.5117538,20.3505976 47.5117538,20.3505976 C47.2685196,19.6208949 48.727925,19.2155045 48.727925,19.2155045 Z M46.7009731,58.051904 C47.5117538,57.6465136 47.7549881,56.8357328 47.7549881,56.8357328 C48.1603785,58.7005286 49.0522373,60.8085587 49.0522373,60.8085587 C48.6468469,61.6193394 47.9171442,61.2950271 47.9171442,61.2950271 C46.1334265,60.4842464 46.7009731,58.051904 46.7009731,58.051904 Z M39.1607118,91.0506818 C39.1607118,91.0506818 38.9985556,91.9425407 39.4850241,93.5641023 C39.4850241,93.5641023 37.9983765,88.888816 37.8362203,85.8889271 C37.8362203,85.8889271 37.0526817,82.6185617 36.0797448,81.2402344 C36.0797448,81.2402344 35.5932763,79.861907 36.4040571,79.861907 C36.4040571,79.861907 39.8904145,78.1592674 39.1607118,91.0506818 Z M40.2147268,97.45585 C40.2147268,97.45585 40.8633514,97.45585 41.0255076,98.1855527 C41.0255076,98.1855527 41.0255076,98.3477089 40.6201172,98.8341773 C40.6201172,98.8341773 40.1336487,98.5909431 39.7282583,98.7530993 C39.7282583,98.7530993 39.5661022,98.0233966 40.2147268,97.45585 Z M32.9987778,52.3764385 C32.9987778,52.3764385 32.6744655,52.2142824 32.9176998,51.6467358 C32.9176998,51.6467358 33.4041682,50.754877 34.5392613,50.9170331 C34.5392613,50.9170331 34.4581832,51.2413454 34.8635736,51.2413454 L36.241901,51.3224235 C36.241901,51.3224235 36.5662133,51.4035016 36.8094475,51.1602674 C36.8094475,51.1602674 37.5391502,51.7278139 36.7283694,52.1332043 C36.7283694,52.1332043 36.241901,52.7007508 34.9446517,52.7818289 C34.9446517,52.7818289 33.9717148,52.9439851 32.9987778,52.3764385 Z M9.81044746,72.8081142 C9.81044746,72.8081142 8.59427629,73.0513485 8.1888859,72.3216458 C8.1888859,72.3216458 8.59427629,70.45685 10.5401502,70.8622404 C10.5401502,70.8622404 10.9455406,71.4297869 11.1076967,70.7811623 C11.1076967,70.7811623 11.6752433,72.0784115 9.81044746,72.8081142 Z M32.1879971,51.1602674 C32.1879971,51.1602674 31.7826067,52.2953605 30.9718259,51.3224235 C30.9718259,51.3224235 31.133982,50.835955 31.6204505,50.9981112 C31.6204505,50.9981112 32.5933874,50.835955 32.1879971,51.1602674 Z M31.6204505,40.0525706 C31.6204505,40.0525706 30.8907478,39.7282583 30.5664355,39.7282583 C30.6883769,39.7282583 30.8907478,39.7282583 30.8907478,39.7282583 C30.8907478,39.7282583 30.7285916,38.9174775 31.133982,38.7553214 C31.133982,38.7553214 30.0533734,37.1337598 29.6207408,37.4580721 C29.6207408,37.4580721 30.701998,36.3774635 31.5666147,37.2420801 C31.5666147,37.2420801 31.7826067,38.5931652 32.6744655,39.0796337 C32.6744655,39.0796337 33.0798559,39.9714926 31.6204505,40.0525706 Z M55.1330932,31.4582943 C54.970937,30.7285916 54.4844686,30.5664355 54.4844686,30.5664355 C54.0790782,30.3232013 54.0790782,29.6745766 54.0790782,29.6745766 C53.5115316,29.025952 53.5926097,29.5124205 53.5926097,29.5124205 C53.1061412,29.4313424 52.862907,29.7556547 52.862907,29.7556547 C52.1332043,29.7556547 51.6467358,29.6745766 51.6467358,29.6745766 C51.0791893,29.8367328 51.1602674,29.4313424 51.1602674,29.4313424 C51.4035016,24.1612673 51.2413454,23.7558769 51.2413454,23.7558769 C51.2413454,22.78294 50.9981112,22.5397057 50.9981112,22.5397057 C50.6737989,22.3775496 50.6737989,21.8910811 50.6737989,21.8910811 C49.9440962,21.9721592 49.7281042,21.4584485 49.7281042,21.4584485 L48.8634876,16.2694515 L46.4849811,17.1340681 C46.9176137,18.7017938 46.7820511,24.7288139 46.7820511,24.7288139 C46.3766607,24.89097 45.9712703,25.863907 45.9712703,25.863907 C45.56588,26.1882193 45.646958,27.7287028 45.646958,27.7287028 C45.56588,28.7016397 45.0794115,29.7556547 45.0794115,29.7556547 C44.592943,30.2421232 44.592943,31.8636847 44.592943,31.8636847 C44.5118649,33.0798559 43.8632403,34.214949 43.8632403,34.214949 C43.3767718,34.7014175 41.9984445,36.8905256 41.9984445,36.8905256 C41.430898,37.7823844 39.7282583,38.5931652 39.7282583,38.5931652 C39.3228679,38.8363995 38.8363995,38.7553214 38.8363995,38.7553214 C38.349931,38.8363995 38.0256187,38.9985556 38.0256187,38.9985556 C37.4580721,38.6742433 37.2148379,39.0796337 37.2148379,39.0796337 C36.6472914,39.5661022 33.8095586,39.2417899 33.8095586,39.2417899 C33.8906367,38.9985556 33.160934,38.7553214 33.160934,38.7553214 C32.9176998,38.349931 32.5123094,38.0256187 32.5123094,38.0256187 C31.8636847,37.7013064 32.2690751,37.2148379 32.2690751,37.2148379 C32.2690751,36.8094475 32.1879971,36.4851352 32.1879971,36.4851352 C31.8636847,36.241901 31.7826067,35.3500421 31.7826067,35.3500421 C31.7015286,34.9446517 30.8096697,34.5392613 30.8096697,34.5392613 C29.9178109,34.0527929 28.2962493,30.2421232 28.2962493,30.2421232 C28.1340931,29.6745766 28.6205616,29.2691862 28.6205616,29.2691862 C29.025952,28.5394835 28.9448739,28.5394835 28.9448739,28.5394835 C29.2691862,26.1882193 28.6205616,26.7557658 28.6205616,26.7557658 C28.6205616,26.7557658 28.2151712,26.6746877 28.4584055,26.1071412 C28.7016397,25.5395946 28.3773274,25.0531262 28.3773274,25.0531262 C28.3773274,24.9720481 27.6476247,24.4045015 27.6476247,24.4045015 C27.3233124,24.4045015 26.7557658,24.6477358 26.7557658,24.6477358 C26.2692973,24.4045015 25.6206727,24.4855796 25.6206727,24.4855796 C25.2963604,24.4045015 24.5666577,24.7288139 24.5666577,24.7288139 C24.0801892,24.7288139 24.1612673,25.2152823 24.1612673,25.2152823 C24.1612673,25.2152823 24.3234235,29.2691862 24.5666577,29.9988889 C24.8098919,30.7285916 25.7828289,30.4042793 25.7828289,30.4042793 C26.2692973,30.9718259 26.4314535,33.4852463 26.4314535,33.4852463 C26.999,35.8365106 27.8097808,36.5662133 27.8097808,36.5662133 C27.2422343,37.1337598 27.4854685,37.3769941 27.4854685,37.3769941 C27.4854685,39.4850241 28.3773274,39.0796337 28.3773274,39.0796337 C30.4853574,44.0253965 30.5664355,43.9443184 30.5664355,43.9443184 C30.6475136,44.7550992 32.3501532,44.6740211 32.3501532,44.6740211 C32.9987778,44.3497088 33.2420121,44.6740211 33.2420121,44.6740211 C33.2420121,45.2415676 34.0527929,45.4037238 34.0527929,45.4037238 C34.5392613,45.8091142 35.1068079,45.0794115 35.1068079,45.0794115 C35.9175887,44.7550992 37.2148379,44.9983334 37.2148379,44.9983334 C37.2148379,46.3766607 37.7823844,48.2414565 37.7823844,48.2414565 C37.8634625,49.5387058 37.1337598,49.7008619 37.1337598,49.7008619 C36.8094475,50.6737989 36.322979,50.5927208 36.322979,50.5927208 C34.5392613,49.9440962 32.5933874,50.754877 32.5933874,50.754877 C32.2690751,50.3494866 32.0258409,50.6737989 32.0258409,50.6737989 C31.3772163,50.3494866 30.8096697,50.9170331 30.8096697,50.9170331 C30.3232013,51.1602674 29.9178109,50.6737989 29.9178109,50.6737989 C27.8908589,49.0522373 25.4585166,49.3765496 25.4585166,49.3765496 C16.7020841,51.3224235 12.2427898,44.7550992 12.2427898,44.7550992 C12.2427898,44.9172553 11.1887748,44.8361773 11.1887748,44.8361773 C14.8372883,52.1332043 25.0531262,50.5927208 25.0531262,50.5927208 C28.7827178,50.6737989 29.2691862,51.6467358 29.2691862,51.6467358 C29.3502643,52.2142824 30.6475136,52.2953605 30.6475136,52.2953605 C30.8096697,52.7818289 31.7826067,52.7007508 31.7826067,52.7007508 C31.6204505,53.6736878 34.8635736,53.7547659 34.8635736,53.7547659 C35.268964,54.7277028 33.6474025,54.970937 33.6474025,54.970937 C31.2150601,55.0520151 25.5395946,57.0789671 25.5395946,57.0789671 C24.2423454,57.4843575 20.3505976,58.1329821 20.3505976,58.1329821 C19.4587388,58.051904 19.1344265,59.105919 19.1344265,59.105919 C18.5668799,59.5113094 18.4047238,60.2410121 18.4047238,60.2410121 C13.458961,65.267853 10.2158379,67.2948049 10.2158379,67.2948049 C9.72936939,67.0515707 9.48613515,67.0515707 9.48613515,67.0515707 C8.51319821,67.1326488 4.78360661,66.5651022 4.78360661,66.5651022 C4.37821622,66.321868 3.56743544,65.8353995 3.56743544,65.8353995 C3.24312313,65.5921653 2.10803003,65.267853 2.10803003,65.267853 C1.29724925,65.348931 0.162156156,66.7272584 0.162156156,66.7272584 C0.729702704,67.1326488 2.75665466,69.1596007 2.75665466,69.1596007 C3.24312313,69.402835 4.13498199,69.6460692 4.13498199,69.6460692 C5.10791893,69.8893034 5.83762163,70.9433184 5.83762163,70.9433184 C6.56732434,72.3216458 7.37810512,72.56488 7.37810512,72.56488 C9.323979,74.3485977 10.8644625,72.8891923 10.8644625,72.8891923 C11.5941652,72.1594896 11.5130871,71.1054746 11.5130871,71.1054746 C11.5130871,70.3757719 11.9995556,69.5649911 11.9995556,69.5649911 C12.8914144,68.5920542 16.3777718,67.8623515 16.3777718,67.8623515 C19.7830511,66.8894145 20.1884415,65.0246187 20.1884415,65.0246187 C20.4316757,63.3219791 21.810003,62.7544325 21.810003,62.7544325 C22.78294,63.0787449 24.3234235,62.9976668 24.3234235,62.9976668 C27.4854685,62.3490422 33.3230901,62.8355106 33.3230901,62.8355106 C33.0798559,64.2138379 32.5123094,68.1866638 32.5123094,68.1866638 C32.1879971,70.1325377 31.6204505,74.7539881 31.6204505,74.7539881 C30.8096697,75.4026127 31.3772163,77.4295647 31.3772163,77.4295647 C31.3772163,77.9971112 31.9447628,78.726814 31.9447628,78.726814 C32.0258409,79.3754386 32.1879971,79.6997509 32.1879971,79.6997509 C32.4312313,81.1591563 33.8095586,84.4022794 33.8095586,84.4022794 C34.9446517,87.077856 38.0794545,96.4829131 38.0794545,96.4829131 L37.8362203,97.1315377 C36.2146587,101.185442 36.2957368,102.320535 36.2957368,102.320535 C35.9714245,102.563769 36.1335807,103.293472 36.1335807,103.293472 C35.5660341,103.617784 34.8363314,104.347487 34.8363314,104.347487 C34.1066287,105.320424 34.3771052,107.023063 34.3771052,107.023063 C34.8635736,106.779829 36.9716037,106.941985 36.9716037,106.941985 C38.5120872,106.779829 38.5931652,105.88797 38.5931652,105.88797 L37.9445406,106.293361 L36.4040571,106.374439 C36.4851352,106.131204 37.5391502,106.698751 38.0256187,105.806892 C38.0256187,105.806892 38.1877748,102.239457 41.430898,99.482802 C41.430898,99.482802 42.3227568,98.6720212 42.9713815,98.9963335 C42.9713815,98.9963335 42.6470691,99.8881924 42.8092253,100.698973 C42.8092253,100.698973 38.7553214,102.401613 38.5931652,105.88797 C38.7553214,105.158267 40.0525706,103.536706 40.0525706,103.536706 C41.6741322,102.158379 43.3767718,101.428676 43.3767718,101.428676 C44.592943,100.455739 44.1064746,99.3206458 44.1064746,99.3206458 C44.1064746,98.3477089 42.6470691,97.8612404 42.6470691,97.8612404 C42.4038349,97.3747719 41.511976,96.4829131 41.511976,96.4829131 C40.1336487,94.9424296 40.2147268,92.1857749 40.2147268,92.1857749 C40.6201172,83.4293425 39.8904145,82.942874 39.8904145,82.942874 C39.4850241,80.5105317 37.5391502,77.5106428 37.5391502,77.5106428 C36.9716037,75.9701593 37.295916,74.9161443 37.295916,74.9161443 C38.7553214,72.4027238 39.4850241,70.3757719 39.4850241,70.3757719 C39.6471802,70.0514596 39.9714926,68.5920542 39.9714926,68.5920542 C40.376883,67.8623515 40.6201172,66.7272584 40.6201172,66.7272584 C40.7011953,65.9164776 41.7552103,64.7813845 41.7552103,64.7813845 C42.8092253,63.4841352 43.2146157,62.5922764 43.2146157,62.5922764 C43.4578499,61.3761052 43.2956938,60.2410121 43.2956938,60.2410121 C43.4578499,59.9166998 44.7550992,59.9166998 44.7550992,59.9166998 C44.7550992,60.5653244 44.7550992,61.3761052 44.7550992,61.3761052 C45.1604896,63.4841352 47.3495977,63.240901 47.3495977,63.240901 C48.6468469,63.4841352 49.1333154,62.2679641 49.1333154,62.2679641 C50.4305647,60.6464025 48.6468469,57.9708259 48.6468469,57.9708259 C48.0793004,56.7546548 48.4036127,56.5114205 48.4036127,56.5114205 C48.727925,55.943874 48.6468469,55.0520151 48.6468469,55.0520151 C48.4846908,55.2141713 47.3495977,55.3763274 47.3495977,55.3763274 C46.3766607,55.4574055 45.646958,54.8087809 45.646958,54.8087809 C44.9172553,54.1601562 45.3226457,52.7818289 45.3226457,52.7818289 C45.8901923,52.9439851 45.8901923,50.9981112 45.8901923,50.9981112 C46.9442073,49.9440962 47.0252854,49.4576277 47.0252854,49.4576277 C47.5117538,47.7549881 49.2954716,45.7280361 49.2954716,45.7280361 C51.8899701,42.8092253 51.2413454,40.2147268 51.2413454,40.2147268 C51.0791893,38.9174775 51.4845797,38.5931652 51.4845797,38.5931652 C51.5526853,38.6100295 51.5961431,38.6353258 51.6272771,38.6625681 C51.6869506,38.4744669 51.8899701,38.349931 51.8899701,38.349931 C52.1332043,38.5120872 52.3764385,38.8363995 52.3764385,38.8363995 C52.9439851,38.9985556 53.1872193,38.7553214 53.1872193,38.7553214 C53.1872193,38.1066968 53.6736878,38.5931652 53.6736878,38.5931652 C53.7547659,37.8634625 54.0790782,38.0256187 54.0790782,38.0256187 C54.3482574,37.7116844 54.3223124,37.3769941 54.3223124,37.3769941 C54.0790782,36.9716037 54.7277028,36.4040571 54.7277028,36.4040571 C55.7006397,33.8095586 55.1330932,31.4582943 55.1330932,31.4582943 L55.1330932,31.4582943 Z" id="Fill-18"></path>
                </g>
            </g>
        </g>
    </g>
</svg>